<svg width="24" height="24" viewBox="0 0 24 24" fill="none" xmlns="http://www.w3.org/2000/svg">
<path d="M15.773 12.9729L14.65 11.8499C14.8 11.0218 14.5637 10.2772 13.9412 9.61619C13.3189 8.95536 12.5551 8.69994 11.65 8.84994L10.527 7.72694C10.7526 7.62561 10.984 7.54961 11.2212 7.49894C11.4584 7.44828 11.718 7.42294 12 7.42294C13.1346 7.42294 14.0978 7.81878 14.8895 8.61044C15.6811 9.40211 16.077 10.3653 16.077 11.4999C16.077 11.7819 16.0516 12.0448 16.001 12.2884C15.9503 12.5319 15.8743 12.7601 15.773 12.9729ZM18.9537 16.0844L17.85 15.0499C18.4833 14.5666 19.0458 14.0374 19.5375 13.4624C20.0291 12.8874 20.45 12.2333 20.8 11.4999C19.9666 9.81661 18.7708 8.47911 17.2125 7.48744C15.6541 6.49578 13.9166 5.99994 12 5.99994C11.5166 5.99994 11.0416 6.03328 10.575 6.09994C10.1083 6.16661 9.64995 6.26661 9.19995 6.39994L8.0347 5.23469C8.6667 4.98336 9.3122 4.79811 9.9712 4.67894C10.6302 4.55961 11.3065 4.49994 12 4.49994C14.3435 4.49994 16.4569 5.14611 18.3402 6.43844C20.2235 7.73077 21.5973 9.41794 22.4615 11.4999C22.091 12.3934 21.6125 13.2274 21.026 14.0019C20.4393 14.7763 19.7485 15.4704 18.9537 16.0844ZM19.7615 21.8692L15.7155 17.8537C15.2026 18.0435 14.6343 18.1987 14.0105 18.3192C13.3868 18.4397 12.7166 18.4999 12 18.4999C9.64995 18.4999 7.53654 17.8538 5.6597 16.5614C3.7827 15.2691 2.40895 13.5819 1.53845 11.4999C1.90762 10.6166 2.38454 9.79261 2.9692 9.02794C3.55387 8.26311 4.19745 7.59994 4.89995 7.03844L2.1307 4.23844L3.1847 3.18469L20.8152 20.8152L19.7615 21.8692ZM5.95395 8.09219C5.42562 8.51269 4.91179 9.01819 4.41245 9.60869C3.91312 10.199 3.50895 10.8294 3.19995 11.4999C4.03329 13.1833 5.22912 14.5208 6.78745 15.5124C8.34579 16.5041 10.0833 16.9999 12 16.9999C12.4551 16.9999 12.9084 16.9614 13.3597 16.8844C13.8109 16.8076 14.1935 16.7282 14.5077 16.6462L13.2422 15.3499C13.0717 15.4191 12.8743 15.4742 12.65 15.5152C12.4256 15.5564 12.209 15.5769 12 15.5769C10.8653 15.5769 9.90212 15.1811 9.11045 14.3894C8.31879 13.5978 7.92295 12.6346 7.92295 11.4999C7.92295 11.2974 7.94354 11.0856 7.9847 10.8644C8.0257 10.6433 8.08079 10.441 8.14995 10.2577L5.95395 8.09219Z" fill="#151515"/>
</svg>
