<svg width="24" height="24" viewBox="0 0 24 24" fill="none" xmlns="http://www.w3.org/2000/svg">
<path d="M7.55775 21.5C6.71292 21.5 5.99208 21.2016 5.39525 20.6047C4.79842 20.0079 4.5 19.2871 4.5 18.4423V5.75C4.5 4.8475 4.816 4.08017 5.448 3.448C6.08017 2.816 6.8475 2.5 7.75 2.5H19.5V16.8845C19.0705 16.8845 18.7035 17.0368 18.399 17.3413C18.0945 17.6458 17.9423 18.0128 17.9423 18.4423C17.9423 18.8717 18.0945 19.2388 18.399 19.5432C18.7035 19.8477 19.0705 20 19.5 20V21.5H7.55775ZM6 15.8443C6.227 15.6891 6.47025 15.5737 6.72975 15.498C6.98942 15.4225 7.26542 15.3848 7.55775 15.3848H8.19225V4H7.75C7.26917 4 6.85733 4.1715 6.5145 4.5145C6.1715 4.85733 6 5.26917 6 5.75V15.8443ZM9.69225 15.3848H18V4H9.69225V15.3848ZM7.55775 20H16.902C16.757 19.773 16.6442 19.5323 16.5635 19.278C16.4827 19.0235 16.4423 18.7449 16.4423 18.4423C16.4423 18.1564 16.4801 17.8821 16.5557 17.6193C16.6314 17.3564 16.7468 17.1115 16.902 16.8845H7.55775C7.11158 16.8845 6.74042 17.0368 6.44425 17.3413C6.14808 17.6458 6 18.0128 6 18.4423C6 18.8884 6.14808 19.2596 6.44425 19.5557C6.74042 19.8519 7.11158 20 7.55775 20Z" fill="#151515"/>
</svg>
