<svg width="24" height="24" viewBox="0 0 24 24" fill="none" xmlns="http://www.w3.org/2000/svg">
<path d="M10.95 15.2037L16.2538 9.89995L15.1845 8.8307L10.95 13.0655L8.83075 10.9462L7.7615 12.0155L10.95 15.2037ZM12 21.4807C9.83717 20.8909 8.0465 19.6178 6.628 17.6615C5.20933 15.7051 4.5 13.518 4.5 11.1V5.3462L12 2.53845L19.5 5.3462V11.1C19.5 13.518 18.7907 15.7051 17.372 17.6615C15.9535 19.6178 14.1628 20.8909 12 21.4807ZM12 19.9C13.7333 19.35 15.1667 18.25 16.3 16.6C17.4333 14.95 18 13.1166 18 11.1V6.37495L12 4.13445L6 6.37495V11.1C6 13.1166 6.56667 14.95 7.7 16.6C8.83333 18.25 10.2667 19.35 12 19.9Z" fill="#151515"/>
</svg>
