<svg width="24" height="24" viewBox="0 0 24 24" fill="none" xmlns="http://www.w3.org/2000/svg">
<path d="M4.57698 17.973C4.01414 17.2552 3.55864 16.4751 3.21048 15.6328C2.86248 14.7905 2.63206 13.9129 2.51923 13H4.04998C4.14998 13.7167 4.33331 14.4042 4.59998 15.0625C4.86664 15.7209 5.21664 16.3334 5.64998 16.9L4.57698 17.973ZM2.51923 11C2.63973 10.0872 2.87214 9.20963 3.21648 8.3673C3.56064 7.52497 4.02056 6.7513 4.59623 6.0463L5.64998 7.10005C5.21664 7.66672 4.86664 8.27922 4.59998 8.93755C4.33331 9.59588 4.14998 10.2834 4.04998 11H2.51923ZM10.95 21.45C10.0371 21.3435 9.16373 21.1156 8.32973 20.7663C7.49573 20.417 6.71789 19.9628 5.99623 19.4038L7.04998 18.3C7.63331 18.7334 8.24998 19.0917 8.89998 19.375C9.54998 19.6584 10.2333 19.85 10.95 19.95V21.45ZM7.09998 5.6808L5.99623 4.5963C6.73456 4.0308 7.52489 3.57663 8.36723 3.2338C9.20956 2.8908 10.0871 2.66288 11 2.55005V4.05005C10.2833 4.15005 9.59581 4.33688 8.93748 4.61055C8.27914 4.88438 7.66664 5.24113 7.09998 5.6808ZM12.95 21.45V19.95C13.677 19.85 14.3728 19.6657 15.0375 19.397C15.7021 19.1285 16.323 18.7693 16.9 18.3193L18.0037 19.4038C17.2654 19.9795 16.4709 20.4362 15.6202 20.774C14.7696 21.1119 13.8795 21.3372 12.95 21.45ZM16.95 5.70005C16.3666 5.26672 15.7416 4.90838 15.075 4.62505C14.4083 4.34172 13.7166 4.15005 13 4.05005V2.55005C13.9128 2.65655 14.7929 2.88288 15.6402 3.22905C16.4877 3.57505 17.2756 4.0308 18.0037 4.5963L16.95 5.70005ZM19.4037 17.9538L18.35 16.9C18.7833 16.3334 19.1333 15.7209 19.4 15.0625C19.6666 14.4042 19.85 13.7167 19.95 13H21.4807C21.3602 13.9129 21.1278 14.7905 20.7835 15.6328C20.4393 16.4751 19.9794 17.2488 19.4037 17.9538ZM19.95 11C19.85 10.2834 19.6666 9.59588 19.4 8.93755C19.1333 8.27922 18.7833 7.66672 18.35 7.10005L19.423 6.02705C19.9858 6.74488 20.4413 7.52497 20.7895 8.3673C21.1375 9.20963 21.3679 10.0872 21.4807 11H19.95ZM11.2655 16.6538V10.2193L8.41548 13.0693L7.36148 12L12.0155 7.3463L16.6692 12L15.6 13.0538L12.7652 10.2193V16.6538H11.2655Z" fill="#151515"/>
</svg>
